<svg width="30" height="30" viewBox="0 0 30 30" fill="none" xmlns="http://www.w3.org/2000/svg">
<path d="M4 15.0776H9.80665C11.345 15.0776 12.385 16.2476 12.385 17.656V20.8844C12.385 22.2928 11.345 23.4628 9.80665 23.4628H6.57834C5.17001 23.4628 4 22.2928 4 20.8844V15.0776Z" fill="#01D0CC" stroke="#01D0CC" stroke-width="2" stroke-linecap="round" stroke-linejoin="round"/>
<path d="M4 15.0783C4 9.03334 5.12666 8.015 8.52833 6" stroke="#01D0CC" stroke-width="2" stroke-linecap="round" stroke-linejoin="round"/>
<path d="M17.3032 15.0776H23.1099C24.6482 15.0776 25.6882 16.2476 25.6882 17.656V20.8844C25.6882 22.2928 24.6482 23.4628 23.1099 23.4628H19.8816C18.4732 23.4628 17.3032 22.2928 17.3032 20.8844V15.0776Z" fill="#01D0CC" stroke="#01D0CC" stroke-width="2" stroke-linecap="round" stroke-linejoin="round"/>
<path d="M17.3032 15.0783C17.3032 9.03334 18.4299 8.015 21.8316 6" stroke="#01D0CC" stroke-width="2" stroke-linecap="round" stroke-linejoin="round"/>
</svg>
